<?xml version="1.0" encoding="utf-8"?>
<!-- Generator: Adobe Illustrator 20.0.0, SVG Export Plug-In . SVG Version: 6.00 Build 0)  -->
<svg version="1.1" id="Laag_1" xmlns="http://www.w3.org/2000/svg" xmlns:xlink="http://www.w3.org/1999/xlink" x="0px" y="0px"
	 viewBox="0 0 494.4 345.7" style="enable-background:new 0 0 494.4 345.7;" xml:space="preserve">
<style type="text/css">
	.st0{fill:#FFFFFF;}
	.st1{fill:#669D24;}
	.st2{fill-rule:evenodd;clip-rule:evenodd;}
	.st3{fill-rule:evenodd;clip-rule:evenodd;fill:#FFFFFF;}
</style>
<path class="st0" d="M154.4,203.9L154.4,203.9c0,39.5,24.5,71.2,59.3,83.8l0,0c9.2,3.3,28.1,10,33.5,11.9l0,0
	c5.5-1.9,24.3-8.6,33.5-11.9l0,0c34.8-12.6,59.3-44.3,59.3-83.7l0,0v-0.1l4.1-124c-1.2-0.1-2.6-0.3-4.3-0.5l0,0
	c-5.4-0.6-13.1-1.4-22.5-2.2l0,0c-18.7-1.6-44.1-3.2-70.2-3.2l0,0h0c-39.3,0-76.6,3.6-92.7,5.5l0,0c-1.7,0.2-3.1,0.4-4.3,0.5l0,0
	L154.4,203.9L154.4,203.9z"/>
<path class="st1" d="M167,202.6L167,202.6c0,34.1,21.2,61.4,51.2,72.3l0,0c7.9,2.9,24.1,8.5,29,10.3l0,0c4.9-1.7,21.1-7.4,29-10.3
	l0,0c30.1-10.9,51.2-38.2,51.2-72.3l0,0v-0.1l3.4-110.2c-0.9-0.1-2-0.2-3.3-0.3l0,0c-4.7-0.5-11.3-1.1-19.5-1.8l0,0
	c-16.2-1.3-38.2-2.6-60.9-2.6l0,0h0c-34.1,0-66.4,2.9-80.3,4.3l0,0c-1.2,0.1-2.3,0.2-3.3,0.3l0,0L167,202.6L167,202.6z"/>
<g>
	<path class="st2" d="M301.8,173c-1.1-1-2.6-1.5-2.9-2.7c-0.7-2.7,2-3.2,1-6.4c0.8-0.8,1.2-2.1,2-2.9c0.1-3.2,0.8-5.8,0.5-8.6
		c-0.3-2-1.4-3.9-1.7-5.9c-0.1-0.7,0.1-1.5,0-2.2c-0.6-4.4-3.3-7.6-2.4-13c0-1.1-1.2-0.9-1.2-2c-0.3-3.8-1.1-7.1-2-10.8
		c-0.7-3.2-1.8-7.4-3.9-8.8c-1.3-0.9-3.4-1.1-4.9-1.7c-2.5-1.1-4.3-2.6-7.1-1.5c-1.2,0.5-2.2,1.9-3.4,3.4c-1.1,1.3-2.4,2.6-3.2,3.7
		c-0.8,1.2-1.6,3-2.4,4.7c-0.8,1.6-1.9,3.3-2.4,4.7c-0.8,2.2-0.6,4.7-2,6.1c-1.3-0.1-3.2,0.3-4.2-0.2c-1.9-2.4,1.2-4.1,1.5-6.4
		c0.1-0.8-0.5-1.6-0.5-2.4c0-0.9,0.4-1.8,0.5-2.7c0.4-4-0.3-8.6,0-13.2c-1.2-1.8-1.7-3.4-3.4-4.2c-0.7-0.3-1.9-0.3-3.2-0.5
		c-2.2-0.4-2.8-0.6-3.9-0.2c-1.8,0.6-3.8,0.7-5.4,2c-1.9,1.4-3.7,4.3-3.9,6.9c-0.2,2.4,1,4.9,1.2,7.3c0.2,2.5-0.3,4.7,0.5,7.1
		c1.1,1,2.4,0.8,2.9,2.2c0.6,1.6-0.7,3.7-2.2,3.7c-1.7,0-2-1.9-2.4-3.7c-1.1-0.9-2-1.9-2-3.9c-2-0.8-2.2-3.3-3.9-4.4
		c-0.4-0.6-0.5-1.4-0.7-2.2c-2.3-1.5-2.2-4.8-5.1-5.1c-2-0.2-3.1,1-4.4,2.7c-1.8,2.3-4.4,4.6-4.4,7.6c0,1.5,1.4,3.2,2,5.1
		c0.2,0.8,0,1.6,0.2,2.2c0.4,1.1,1.5,2.1,2,3.2c0.7,1.6,0.9,3.6,1.5,5.4c1,3.3,2.7,5.3,2.9,8.8c-0.6,2.2-2.8,3.5-3.9,5.4
		c-1.3,2.2-1.1,4.8-2.2,7.6c-1.7,0.5-2.4,2-4.2,2.4c-5.6-0.8-2.7-7.7-2.7-11.8c-1.5-0.2-4.9,1.9-5.6,2.9c-2.1,2.9,0.2,5.9,0.7,9.1
		c1.3,1.9,5.6,2.8,3.9,6.1c-1.9,0.6-2.9,0.7-3.9,2.2c-1.2,1.7-0.8,4.7-2.2,5.9c-1.5,1.3-3.7,0.7-6.1,1.5c-0.9,1.2-2.1,2.3-3.2,3.2
		c-0.5,0.4-1.3,0.5-1.5,0.7c-0.6,0.8-1,2.7-1,3.7c0.1,1.6,1.1,2.2,1.5,3.9c1.1,0.2,1.1,1.3,2,1.7c2.3,1.4,5.4-0.7,7.8,0.2
		c0.3,0.6,0.8,0.8,0.7,1.7c-2.1,0.4-3.4-1.1-5.1-1c-1.4,0.1-4.4,2.2-5.1,3.7c-2.1,4.5,1.5,8.4,5.1,8.6c2.1,0.1,3.3-1.5,4.9-1.7
		c2.7,0.5,0.9,5.5,3.4,6.1c1.4-0.8,0.4-4,0.7-5.9c-1.8-4.7,0.2-10.3-1.7-14.9c1.7-2.1,2.9-4.6,3.4-7.8c2.8-2,5.2-4.2,9.3-4.9
		c0.5-0.8,0.9-1.7,0.7-3.2c2.4-2.1,4-5.1,6.4-7.3c0.6,2,1.8,4.5,0.7,6.9c0.7,1.5,0.5,4,0.5,6.1c-1.5,3.5-1.5,7.6-2.4,11.8
		c-0.7,3-2.1,5.7-2.4,8.8c-0.2,1.6,0.1,3.3,0,4.9c-0.1,0.7-0.4,1.3-0.5,2c-0.2,1.5,0.2,3,0,4.4c-0.2,1.4-1,2.7-1.2,4.2
		c-0.3,1.8,0.1,3.7-0.7,5.4c1.1,1.6,0.5,3,0.2,5.1c-0.5,3.6-0.8,5.5-1.7,8.3c-1.1,3.5-1.6,5.2-3.7,6.4c-2-0.4-3,0.3-4.7,1
		c-0.7,0.3-1.9,0.4-2.4,0.7c-2.2,1.2-4.9,4.8-5.4,7.1c-0.6,3.3,0.3,6.8,1,10c1.4,0.4,2.2,3,3.7,4.2c0.9,0.7,3,1.1,4.4,2
		c1.2,0.7,2,1.6,2.9,2c0.7,0.3,1.8,0.4,2.7,0.7c2.4,0.8,4.9,1.4,8.1,1.7c3.4,0.3,7.4,0.7,11,0.7c3,0,6.3-0.6,9.5-0.7
		c7-0.4,14.4-0.6,18.8-2.9c1.5-0.8,4.5-3.3,5.4-4.4c0.8-1,2.3-2.1,2.7-2.9c1.7-3.9,0.2-9.1-0.5-13c-2.2-1.7-3.9-4.2-6.6-5.4
		c-1.2-0.5-2.6-0.2-3.7-1.2c0.5-1.3,1.4-2.2,1-4.4c0.9-2.2,2.1-4.3,2.4-6.6c0.2-1-0.1-2.1,0-3.2c0.2-1.9,0.9-3.4,0.7-5.1
		c-0.1-1.5-1-3-1.2-4.7c-0.1-1.3,0.2-2.7,0-4.2c-0.1-1.2-0.7-2.3-0.7-3.4c0-1.6,0.6-3.3,0.7-4.9c0.3-5.5-0.2-9.5-2-12.7
		c-0.9-4.5,0.5-9.7,0-14.7c-0.2-1.9-0.9-3.6,0-5.1c-0.5-1.1-0.6-2.1,0-3.2c-1.3-0.5-1.4-4.2,0-4.7c1.5,0.5,2.6,2.5,3.7,4.2
		c1.1,1.6,2.3,3.3,2.9,4.9c1,2.5,0.2,4,0,6.4c-0.1,1.1,0.8,2.2,0,3.2c0.8,0.7,0.5,1.5,1,2.2c2,3.1,7,2.9,5.6,8.6
		c-0.8,1.9-3.4,3.3-4.2,5.6c-0.2,0.6,0.1,1.2,0,2c-0.3,1.6-1.6,3.3-2,4.9c-0.3,1.6-0.1,3.6-0.2,5.1c1.8,0.6,2.3-1.9,3.9-2.2
		c1.1,0.3,1.4,1.4,2.7,1.7c2.9,0.7,7.9-0.3,9.1-2.2c1.9-3,0.2-8.1-1-9.5c1-2.1,1.8-4.6,2.9-6.6c1-0.2,1.8-0.7,2.7-1
		c1.1-1,2.2-2,3.9-2.4c0-1.3,1.4-1.2,2-2C304.9,177.2,304.5,175.3,301.8,173z M260,234.4c-4.2-0.9-10.2,0-14.2-1
		c-3.5,0.5-8,1.1-11.5,0.7c-0.3-3,1.6-4.8,2.7-7.1c1-2.2,1.5-4.8,2.7-7.1c0.6-1.1,1.5-2.2,1.7-3.2c0.4-1.9-0.6-3.8-0.5-5.9
		c0.1-1.4,0.9-2.9,1.7-4.4c0.7-1.3,1.3-2.8,2-3.9c0.9-1.5,2.4-2.7,3.2-4.2c1.2-2.3,2.1-5.8,3.7-7.6c0.2,0,0.2,0.1,0.2,0.2
		c1,1.9,1,4.9,2.4,6.4c0,3.7,1.6,5.7,3.7,7.3c-0.4,2.2,1.1,2.6,1.7,3.9c0.8,2.9-0.9,5.6-1.2,7.8C257.3,223.3,260.7,228.3,260,234.4z
		"/>
	<path class="st3" d="M256.1,103.2c-4.4,0.3-7.3,2.1-6.9,7.3c-1.3-0.1-2,0.9-3.2,0.2c-0.6-1-1.3-3.6-0.2-4.7
		c0.2-0.2,1.1-0.3,1.5-0.7c0.2-0.3,0.2-0.9,0.5-1.2c0.5-0.4,3.7-2.6,4.4-2.7C253.6,101.4,255.4,102.3,256.1,103.2z"/>
	<path class="st3" d="M259.7,108.1c-4-0.6-5.1,1.6-8.3,1.7c-0.1-1,0.6-1.2,0.5-2.2c1.5-0.2,2.9-0.9,4.7-0.7c0.6,0.1,0.9,0.6,1.5,0.7
		C258.6,107.8,259.8,107.1,259.7,108.1z"/>
	<path class="st3" d="M296.2,170c-1.8-0.6-1.7-3.5-2-5.4c-0.6-4.3-1.2-7.5-3.2-10.5c-1.7-2.6-4-3.9-5.6-6.9c-0.4-0.7-0.5-1.8-1-2.4
		c-1.2-1.9-3.4-2.7-2.7-5.6c-1.3-1.2-1.3-1.7-1.5-3.4c-2.3-3.3-4.7-6.4-9.5-7.1c0.9-3,1.9-5.6,3.2-8.1c1.3-2.5,2.8-4.6,3.9-7.1
		c1.8-0.7,2.6-1.4,4.4-1.2c2.3,0.3,3.7,3.1,6.6,2.4c0.3-1.7-1.3-2.3-2.2-2.9c-1-0.7-2.2-1.3-3.2-2c-1.4,0-2.8,0-4.2,0
		c0.6-1.1,3.2-0.2,4.7-0.5c1.1,0.7,2.7,1.1,4.2,2c1.1,0.6,2.9,1.5,3.7,2.4c1,1.2,1,3.1,1.5,5.6c1.1,6.1,2.2,11.6,3.7,17.6
		c0.9,3.6,2.1,7.2,2.4,9.8c0.2,1.3-0.1,2.3,0,3.2c0.3,1.9,1.1,3.7,1.2,5.1c0.3,5.3-2.8,7.8-2.4,12.7
		C297.2,168.3,297.6,170,296.2,170z"/>
	<path class="st3" d="M277.6,110.6c0,0.9-1,3-2.7,2.9C275.5,112.2,276.4,111.2,277.6,110.6z"/>
	<path class="st3" d="M258,114.2c0.2,0.9-1.2,0.3-1.7,0.5c0.1,1.2,0.8,1.7,1,2.7c-0.4,1-1.2,1.8-2.2,2.2c-2.8-0.8-4.2-3-5.6-5.1
		c0.3-0.2,0.5-0.5,0.5-1c1.8,0,3.6,0,5.4,0C256.3,112.1,259.2,112.7,258,114.2z"/>
	<path class="st3" d="M231.8,136.5c-1.9-1.3-1.7-3.6-2.4-5.6c-0.7-1.8-2-3.3-2.7-5.1c-0.4-1-0.4-2.1-0.7-3.2c-0.3-1-1-1.8-1-2.9
		c1.9-1.2,3.6-2.6,4.7-4.7c0.2,0,0.5,0,0.7,0c3.2,1.9,5.5,9.7,7.3,13.5c0.4,0.8,2,2.5,2,3.4c-0.2,1.6-2.2,1.6-3.4,2.2
		C234.5,134.8,233.6,136.3,231.8,136.5z"/>
	<path class="st3" d="M246.5,115.9c1.6,0.3,1.8,2.7,0.7,3.7C245.6,119.5,246.5,117.1,246.5,115.9z"/>
	<path class="st3" d="M235.8,117.9c0.4-0.1,0.4,0.2,0.7,0.2c2.2,4.2,5.2,7.5,7.3,11.7c-1.3,4-4.3,0.3-4.2-2.4
		c-1.8-2.5-2-6.5-4.2-8.6C235.4,118.4,235.7,118.2,235.8,117.9z"/>
	<path class="st3" d="M250.2,123.3c0.3,0,0.4,0.1,0.5,0.2c2.4,1.2,1.3,4.4,1.7,7.1c0.2,1,1,1.9,1.2,2.9c0.3,1.3-0.6,3.1,0.7,3.7
		c1.6-0.6,0.9-2.7,1.5-3.9c0.6-1.3,1.9-1.8,2.7-2.7c1.1,0,1.8,0.5,2.7,0.7c0.4,0.4-0.8,1.6,0,2.4c5.4,0.8,11.4-4.4,15.2-0.2
		c0.6,2.5,2.2,4,3.4,5.9c-0.1,1.6,0.3,3.1,1,4.4c0.5,1,1.5,1.5,2.2,2.4c2.3,3.3,2.8,7,6.6,8.6c2,4.3,2.9,9.7,3.7,15.2
		c-4.1,4-7.2-2.3-7.8-5.9c-1.2-0.2-3.2-4.8-3.2-6.6c0-0.9,0.1-1.8,0.7-2.4c-3.6-2.4-6.5-5.4-8.6-9.3c-2.9-1.5-4.5-4.3-5.6-7.6
		c-3.1,1.8,1,5.2-1.2,8.3c-0.8,1.1-4.6,2.5-6.9,2.2c-2.4-0.3-3.5-2.8-6.9-2.7c-0.3-1.5-1.1-2.5-1.5-3.9c-1.3,0.6-0.3,2.1-0.7,3.2
		c-1.2,1-2.6,1.8-4.4,2.4c-3.1,1-7.8,2.6-8.8-1.2c-0.9-3.3,2.4-7,1.7-8.8c-3.7,1.7-2.2,6.3-2.9,10c-0.1,0.7-0.9,2.1-1.5,3.2
		c-0.4,0.9-1.4,1.8-1.7,2.7c-0.1,0.5,0.2,1.1,0,1.5c-0.4,1-1.4,1.9-2,2.9c-0.6,1.1-0.8,2.6-1.2,3.4c-1,1.8-3.1,2.9-3.9,4.4
		c-2.1-0.7-3-2.5-3.9-4.4c0.5-1.3,2.1-1.5,3.2-2.2c0.5-1.9,1.7-3.8,1.2-5.9c1.4-2.3,3.1-4.7,5.1-7.1c0.6-0.7,1.6-1.7,1.7-2.2
		c0.2-1.2-1.5-2-1.5-3.2c0-1.3,2.2-3.9,3.2-4.4c0.8-0.4,2.8-0.8,4.2-1c2.8-0.5,6.2-0.2,9.1-1.2c0-2-1.6-2.2-2.9-2.2
		C248.2,129.9,250.5,126.2,250.2,123.3z"/>
	<path class="st3" d="M269.5,125.7c0,1-0.2,1.7-0.7,2.2C267.8,127.7,268.3,125.3,269.5,125.7z"/>
	<path class="st3" d="M253.6,126.2c2.3-0.4,2.7,1.1,3.7,2c-0.1,1.6-0.8,2.4-2.7,2.2C254.5,128.8,253.9,127.7,253.6,126.2z"/>
	<path class="st3" d="M271.5,147c0.5,0.2,1,0.5,1.7,0.5c1.8,3.1,4,6,6.6,8.3c0.2,1.8,1.9,3,0.5,4.4c-1-0.7-2-1.5-3.9-1.2
		c-0.3,0.4,0.8,2.5,0,3.4c-2.4-2.3-5.9-5.1-5.9-9.3C270.5,151.1,271.8,149.2,271.5,147z"/>
	<path class="st3" d="M247,161.2c1.5,0.7,3.5-0.1,4.6-0.5c2.7,0.8,6.2,1,7.3,3.4c0.3,1.6-0.6,4.3,0.5,5.1c1.3-0.3,0.7-2.6,1.5-3.4
		c1-1.9,3.9-3.3,5.9-2.2c-0.4,3.7-4.6,3.6-5.9,6.4c-3.1,1.1-6.2,3.6-10.8,4.2c-3.9,0.5-8.4,0.1-11.3-1.7c-0.2-4,0.2-6,1.5-8.6
		c3.3-0.1,2.4,4.1,3.7,6.1c0.8-0.4,0.7-2.6,0.5-3.9c-0.4-2.9-2.6-4.7-4.2-6.4c-0.2-1,0.1-2.4-1.5-3.4c1-2-0.5-3.7,1-5.1
		c4.3-0.5,7.9-1.8,12-2.4c0.8,1.8-1.2,5.2,0.5,7.3c2.4-0.8,0.6-4.7,0.7-6.9c1.5-1.2,3.9-0.1,4.9,0.7c2.6-0.5,4.6,0.8,6.4,0.5
		c1.8-0.3,2.3-2.3,4.4-2.2c1.4,5-0.9,9.6-2.9,12.7c-1.8,0.6-3.3,1.5-5.6,1.7c-1.4-1.4-3.2-2.4-4.7-3.7
		C252.3,159.3,247.3,157.9,247,161.2z"/>
	<path class="st3" d="M237.2,168.8c-2-0.5-1.1-3.1-1.2-5.1c-0.3-4.2-2-8.9,1-10.8c0.3,0.1,0.4,0.4,0.7,0.5
		C238.8,158.4,239.6,164.7,237.2,168.8z"/>
	<path class="st3" d="M281,165.1c2.9,1.2,1.8,3,0.2,5.4c-0.7,1-1.8,2-2.2,2.7c-0.2,0.4,0.6,1.3-0.5,1
		C279.2,171,280.2,168.2,281,165.1z"/>
	<path class="st3" d="M221.3,166.4c2.6,3.1-0.6,6.9-4.2,7.3C217.2,170.8,217.3,166,221.3,166.4z"/>
	<path class="st3" d="M284,168.3c1.7,0.4,3.1,2.3,3.2,3.9c0,1.1-0.9,2-1.2,3.2c-0.4,1.5,0,4-1.7,3.7c-1-0.3-0.8-1.7-1.2-2.4
		C280.4,174.2,283.3,171,284,168.3z"/>
	<path class="st3" d="M268.3,173.7c1.5,3.1-1,6.4-3.7,5.1C265.5,176.7,266.3,174.7,268.3,173.7z"/>
	<path class="st3" d="M291.3,182.3c-0.3-1.5,0.4-2.1,0.7-2.9c-0.1-2-0.6-3.8,0.7-4.9C297.1,175.4,299.5,183.8,291.3,182.3z"/>
	<path class="st3" d="M214,176.6c-0.6,1.2-0.7,2.8-1.7,3.7c-1.9,0.2-1.7-1.7-2.4-2.7C210.6,175.8,213,173.7,214,176.6z"/>
	<path class="st3" d="M298.2,175.7c1.9-0.4,2.6,3.7,0.2,3.4C298,178.2,298.2,176.9,298.2,175.7z"/>
	<path class="st3" d="M258.8,177.6c-0.3,1.9-3.3,3-4.6,4.7c-2,0-4.5-0.2-6.4,0.5c-0.2,0.1-1.7,0.5-1.7,1c0.1,2.1,3.8,0.4,5.6,0
		c1.1-0.3,2.4,0,3.2-0.2c1.5-0.4,3-1.8,3.9-2.7c1.4-1.3,1.6-2.9,3.7-2.4c0.6,0.8-0.2,1.8-0.2,2.7c-3.4,1.3-6.4,5.7-10.5,6.4
		c-6.3,1-11.3,0-16.6-2.9c-0.4-2.5,1.1-5,1.5-7.6c3.1,0.7,5.1,2.5,7.6,3.7C250.4,181,254.3,179,258.8,177.6z"/>
	<path class="st3" d="M268.8,211.6c0.4,1.4,1.6,2,2.4,2.9c0.3,8.2-2.1,15.4-4.9,21.3c0.2,2.7-0.8,5.4-0.7,8.1
		c0.1,2.6,1.2,5.2-0.2,7.3c-2.6,0-4.2,1.1-5.9,2c-1.7-9.9,5.4-20.2,0.7-29.4c1.1-1.5-0.4-2.9,0-5.1c0.4-0.6,1.4-0.5,2.4-0.5
		c0.9-5.8-1.8-9.5-1.7-13.7c-0.6-0.9-2-1-2.7-1.7c-0.4-2.3-1.8-3.6-2.9-5.1c0.6-3.6-2.5-5.4-1.7-8.3c0.6-2.5,4-2.6,6.4-3.9
		c1.3-2,4-2.7,5.6-4.4c2.6,0.5,2.3,2.8,2.9,5.9c0.2,0.8,0.8,1.3,1,2.2c0.1,0.6-0.1,1.6,0,2.4c0.2,2.1,0.8,6.5,0.5,9.1
		c-0.2,1.6-0.9,2.9-0.7,4.4C269.5,207.7,270.6,209.6,268.8,211.6z"/>
	<path class="st3" d="M288.1,184.2c1.8,0.6,3.4,1.5,4.4,2.9c-0.1,3.4-1.9,6.4-5.9,5.1C285.6,188.8,288,186.7,288.1,184.2z"/>
	<path class="st3" d="M247.5,189.6c0.4,0.7,0.6,1.6,1.2,2.2c-1.8,3.6-3.1,7.5-6.1,9.8c0.4,2.3-1.9,3.3-2.7,5.1
		c-0.6,1.3-0.4,3.1-1,4.4c-0.5,1.2-1.7,1.8-1.7,3.2c-0.1,1.3,1.8,0.6,1.7,2c0,3.2-2.4,4-2.7,6.9c-2.2,3.1-3.1,7.5-4.2,11.8
		c-0.6,1-2.4,0.9-2.9,2c-0.3,2.1,2.4,1.2,2.9,2.4c0,3-2.1,3-4.9,4.4c-1.9,0.9-3,2.2-4.2,2.2c-1.7-0.1-3-1.9-2.9-2.9
		c0.1-1.5,2.5-2.2,3.7-3.4c2.1-2.2,4.9-9.5,5.4-13.5c0.2-1.9-0.1-3,0.7-4.7c-0.3-0.6-0.3-1.5-0.7-2c0.4-3,1.8-5.1,2.9-7.3
		c0.5-0.9-1.6-1-1.7-2c0.1-1.1,1-2.2,1.2-3.4c0.5-3.5-0.5-7.7,0-11.5c0.3-2.5,1.7-6.3,2.9-8.1C238.6,188.3,241.6,190.4,247.5,189.6z
		"/>
	<path class="st3" d="M204.7,197.7c0.2-1-0.5-1.3-0.5-2c0.2-2.6,5-3.4,5.6-1C210.5,197.6,207.3,199.1,204.7,197.7z"/>
	<path class="st3" d="M243.1,238.3c2-0.1,3.3,0.6,5.4,0.5c-0.1,0.5-0.7,0.4-0.5,1.2c-1.7-0.2-3.4-0.4-4.9-0.7
		C243.1,239,243.1,238.6,243.1,238.3z"/>
	<path class="st3" d="M257,240c0.4,0.4,1.3,0.2,1.2,1c-0.3,0.3-1.1,0.2-1.7,0.2C256.3,240.5,256.9,240.5,257,240z"/>
	<path class="st3" d="M217.4,240.8c-0.7,2.6-3.5,3.7-2.9,7.1c0.3,1.7,2.9,3.4,5.1,4.7c2.1,1.2,4.9,2.4,7.1,2.7
		c1.9,0.2,3.2-0.1,4.7,0c1.5,0.1,3.1,0.6,4.7,0.7c2.7,0.2,5.6-0.2,8.3-0.2c2.1,0,4,0.4,5.6,0.2c0.8-0.1,1.6-0.6,2.7-0.7
		c2-0.3,4.3,0.3,5.4,0c0.9,0,0.4,1.2,1.2,1.2c1.7-0.1,2.5-1.1,3.7-1.7c0.9-0.2,2,0.2,3.2,0c0.9-0.2,1.3-1.1,2.4-1.7
		c1.2-0.7,2.8-0.7,3.9-1.2c2.7-1.3,4.9-3.5,4.9-7.3c2.2,2.5-0.1,5.6-1.5,7.3c-1.9,0.7-3.6,1.6-5.4,2.4c-1.7,0.8-3.5,1.4-5.4,2.2
		c-2.8-0.4-4.9,1.5-7.1,1.7c-0.7,0.1-1.1-0.5-1.7-0.5c-0.8,0-1.7,0.7-2.4,0.7c-1.4,0.1-1.9-0.4-3.2-0.7c-2.4,0.9-6.2,0.5-8.8,1.2
		c-3.2-1.5-7.3-0.5-11.5-1.2c-1-0.2-1.8-1-2.9-1.2c-0.7-0.1-1.6,0.2-2.2,0c-1.4-0.4-2.6-1.8-4.2-1.2c-2.6-1.7-9.5-5.3-9.1-9.5
		c0-0.2,1.9-4.5,3.2-4.9C216,240.6,216.6,240.9,217.4,240.8z"/>
	<path class="st3" d="M273.7,244.9c-0.5,0.5,0.2,0.8-0.2,1.2c-1.4-0.4-3.3-0.3-4.7-0.7C269.5,243.4,271.7,245.3,273.7,244.9z"/>
	<path class="st3" d="M229.6,248.6c0,0.9-1.5,0.3-2,0.7c-1.1,0.3-1.6,1.1-2.4,1.7c-2.9,0-5.4-0.2-7.1-2c0.5-0.6,2.3-1.2,3.7-1.5
		c1.2-0.2,3-0.3,4.4-0.2C227.5,247.4,229.7,246.9,229.6,248.6z"/>
	<path class="st3" d="M241.9,248.8c-0.4,1.6-2.4,2.6-4.4,3.4c-1.8,0.7-2.8,2.5-4.6,1c1-0.9,1.6-2.2,3.4-2.2
		C237,249.4,239.5,248.2,241.9,248.8z"/>
	<path class="st3" d="M233.3,249.8c-1,1.9-3,2.9-5.9,2.9c0.5-1.2,2-2.2,3.4-2.7C231.5,249.9,232.5,249.9,233.3,249.8z"/>
	<path class="st3" d="M252.9,249.8c1.6,0.3,4.3,0.7,3.4,2.7C255.1,252.6,253.2,251.4,252.9,249.8z"/>
	<path class="st3" d="M269.8,249.8c0.3,1.2-1.4,1.2-1.7,1C268.1,249.9,268.8,249.7,269.8,249.8z"/>
	<path class="st3" d="M248,254c-2.8-0.2-6.2,0.3-8.6-0.2c-0.2-1.1,2.8-2.9,3.9-3.2C245.4,250.1,248.3,251.1,248,254z"/>
	<path class="st3" d="M278.3,253c-0.2,2-2.5,3.6-3.9,4.9c-1.9,1.7-7.1,4.1-10.5,4.7c-0.8,0.1-1.8-0.1-2.7,0c-2.1,0.2-4.3,1-6.4,1.2
		c-4.5,0.4-9-0.5-13.2,0c-0.8,0.1-1.6,0.5-2.4,0.5c-2.3,0-4.8-1-7.3-1.2c-1.3-0.1-2.7,0.2-3.9,0c-1.9-0.3-4.1-1.2-5.9-2.2
		c-1.9-1.1-4-2-5.1-2.9c-1.9-1.5-3.1-3.4-4.9-4.7c-0.1-0.4,0.2-0.4,0.2-0.7c0.2,0,0.2-0.2,0.5-0.2c0.2,0,0.2,0.1,0.2,0.2
		c1.2,0,1.1,1.2,1.7,1.7c1.9,0.5,3,2,4.9,1.7c2.2,2.6,6.7,2.8,10.8,3.4c1.7,0.3,3.6,0.9,5.1,1c1.4,0.1,2.9-0.3,4.4-0.2
		c1.7,0.1,3.5,0.7,5.1,0.7c1.2,0,2.8-0.4,4.2-0.5c4.2-0.3,8.6-1.2,12.5-1.5c1.1-0.1,2,0.1,2.9,0c1.7-0.3,3.9-1.4,5.6-2.2
		c1.9-0.9,3.8-1.7,5.1-2.4c0.5-0.3,1-0.7,1.5-1C277.4,252.9,277.7,252.4,278.3,253z"/>
	<path class="st3" d="M268.3,260.4c-0.4,0.1-0.6-1-0.7-0.2C267.8,260.1,268.1,261.2,268.3,260.4z"/>
	<path class="st3" d="M274.2,115.9c-0.3,0.6-1,0.8-1.2,1.5c-0.1,3.4-1.8,5.2-2.9,7.6c-0.8-0.5-0.6-1.8-0.5-2.4
		c0.2-1.3,1.9-2.3,2.7-3.7C273,117.6,272.8,115.9,274.2,115.9z"/>
</g>
<path d="M245.8,303.3c0,0-23.1-8.2-33.6-11.9l0,0c-36.4-13.1-62.5-46.7-62.5-88.2l0,0l-4.2-126.3l3.9-0.5c0.1,0,47-6.3,97.8-6.3l0,0
	h0c50.7,0,97.6,6.2,97.8,6.3l0,0l3.9,0.5l-4.2,126.3c0,41.4-26,75-62.5,88.1l0,0c-10.4,3.8-33.5,11.9-33.5,11.9l0,0l-1.5,0.5
	L245.8,303.3L245.8,303.3z M158.5,203.1L158.5,203.1c0,37.8,23.4,68,56.7,80.1l0,0c8.8,3.2,26.8,9.5,32,11.4l0,0
	c5.2-1.8,23.2-8.2,32-11.4l0,0c33.2-12,56.7-42.3,56.7-80l0,0v-0.1l4-118.5c-1.1-0.1-2.5-0.3-4.1-0.5l0,0
	c-5.1-0.6-12.5-1.4-21.5-2.1l0,0c-17.9-1.5-42.1-3.1-67.1-3.1l0,0h0c-37.5,0-73.2,3.5-88.6,5.2l0,0c-1.6,0.2-2.9,0.3-4.1,0.5l0,0
	L158.5,203.1L158.5,203.1z"/>
<g>
	<path d="M54,32.5l0.3,36.1L45,71L33.7,50.9c-1.3-2.3-2.5-5-3.6-7.7l-0.1,0c0.4,2.8,0.6,5.5,0.7,8.3l-0.1,23.3L21.8,77L4.5,45.3
		c-1,0.2-2.3,0.3-3.2,0.3L0,40.8l15.2-4l1.2,4.7c-1.2,0.6-2.7,1.3-4,1.7l8.3,15.3c1.3,2.4,2.4,5,3.5,7.6l0.1,0
		c-0.3-2.7-0.5-5.5-0.5-8.1L24,34.6l8-2.1l11.8,20.2c1.1,1.9,2.4,4.6,3.5,7.2l0.1,0c-0.2-2.9-0.5-5.4-0.5-7.9l-0.3-17.6
		c-1.4,0.2-3,0.3-4.3,0.4l-1.2-4.7l14.6-3.8l1.2,4.8C56.1,31.6,55,32.1,54,32.5z"/>
	<path d="M83.1,62.2c-0.4-1.7-0.7-3.5-0.8-5l-0.1,0c-0.7,3.6-3.8,6.6-8.1,7.6c-5.3,1.1-9-1.2-10-5.9c-1.5-7,4.7-11.9,14.6-14.2
		l-0.4-1.8c-0.7-3.1-2.2-4.4-6.3-3.5c-1.4,0.3-2.8,0.8-4,1.4c0.1,1.2,0.2,2.6,0.2,3.9l-4.8,1l-1.8-8.6c2.9-1.5,6.2-2.9,9.9-3.7
		c9.4-2,12.9,1.2,14.3,7.6l3,13.9c1.5-0.1,3.4-0.2,4.9-0.4l1,4.8C91.5,60.4,87,61.5,83.1,62.2z M79.8,49.5c-7,1.5-9.3,3.8-8.7,6.7
		c0.4,1.9,2,2.8,4.1,2.4c3.7-0.8,5.5-4.8,4.7-8.4L79.8,49.5z"/>
	<path d="M114.1,32.9c-6.2,0-8.3,4-6.8,12.2l1.2,6.5c1.8-0.2,3.7-0.2,5.3-0.2l0.9,4.8l-17.8,3.3L96,54.5c1.5-0.6,3.3-1.2,5-1.6
		l-3.3-18.1c-1.5,0-3.5,0.2-5.2,0.4l-0.9-4.7c3.6-1.2,8.1-2.2,12.1-2.8c0.3,1.5,0.5,3.9,0.6,6.1l0.1,0c0.7-4,3-7.7,8.7-8.4
		L114.1,32.9z"/>
	<path d="M140.9,32.6c-0.5-3.1-1.6-4.8-4.3-4.4c-3.9,0.6-6.2,5.4-5.5,10.6l1.3,8.7c1.4-0.1,3.1-0.1,4.4,0l0.7,4.9l-17,2.5l-0.7-4.8
		c1.5-0.5,3.3-1.1,5.1-1.5l-2.7-18.2c-1.5,0-3.5,0-5.3,0.2l-0.7-4.7c3.7-1,8.2-1.9,12.2-2.3c0.2,1.4,0.4,3.8,0.4,5.3l0.1,0.1
		c1.3-3.8,4.4-6.7,9.2-7.4c6.6-1,9.4,3,10.2,8.1l2.2,15.2c1.7-0.1,3.5-0.1,5,0l0.7,4.8l-12.4,1.8L140.9,32.6z"/>
	<path d="M167.2,49.2c-2.3,0.2-5.3,0.3-7.8,0l-1-8.9l4.8-0.5c0.4,1.2,0.8,2.5,1,3.8c0.9,0.1,2.1,0.1,3,0c3-0.3,5-1.9,4.8-4.1
		c-0.6-5.2-14.6-0.9-15.6-10.7c-0.6-5.4,3.3-10,11.7-10.9c2.2-0.2,5-0.2,7.8,0.1l0.9,8.5L172,27c-0.4-1.2-0.8-2.5-1-3.8
		c-0.9-0.1-1.9-0.1-2.7,0c-3.2,0.3-4.6,1.8-4.4,3.8c0.6,5.3,14.6,1.3,15.6,10.6C180.2,43.4,175.4,48.3,167.2,49.2z"/>
	<path d="M209.2,20.6l-6.7,24.8l-9.7,0.7l-10-23.6c-1.1,0-2.2-0.1-3.3-0.4l-0.3-4.9l14.4-1l0.4,4.9c-1,0.3-2.1,0.6-3.1,0.8l3.9,9.2
		c0.9,2.2,1.8,4.4,2.5,6.9l0.1,0c0.4-2.4,0.8-4.9,1.4-7.1l2.6-9.8c-1,0-2.1-0.1-3.2-0.3l-0.4-4.9l14.2-1l0.4,4.9
		C211.4,20.1,210.3,20.4,209.2,20.6z"/>
	<path d="M240.9,30.1l-18.5,0.6c0.1,5.6,2.9,8.2,8.5,8c2.9-0.1,6.1-0.8,8.6-2.1l0.9,5.9c-3.1,1.4-6.9,2.1-10.6,2.2
		c-9.5,0.3-14.9-4.3-15.2-14.8c-0.3-9.1,4.6-16,13.5-16.3c8.7-0.3,12.7,5.6,12.9,12.9C241,27.7,241,28.9,240.9,30.1z M228,19.4
		c-3.2,0.1-5.3,2.5-5.6,6.1l11-0.3C233.3,21.4,231.2,19.3,228,19.4z"/>
	<path d="M262.1,39.1l0,4.9l-17.8-0.1l0-4.9c1.6-0.3,3.4-0.6,5.2-0.7l0.2-32.3c-1.4-0.3-3.5-0.5-5.2-0.6l0-4.8
		c3.8-0.5,8.5-0.6,12.9-0.4l-0.3,38.3C259,38.5,260.6,38.8,262.1,39.1z"/>
	<path d="M284.6,44.7c0.1-1.5,0.3-3.4,0.6-5l-0.1,0c-1.7,3.2-5.1,5.4-9.6,5.2c-7.3-0.3-10.6-5.9-10.3-14.4
		c0.4-10.1,6.6-16.8,16.5-16.4c1.3,0.1,2.5,0.2,3.8,0.4l0.3-7.8c-1.4-0.3-3.5-0.6-5.2-0.8l0.2-4.8c3.8-0.3,8.5-0.3,12.9,0L292,39.1
		c1.4,0.3,3.4,0.6,4.9,0.8l-0.2,4.8C293.2,45,288.6,45,284.6,44.7z M285.1,20.9c-1.4-0.4-2.7-0.6-4-0.6c-4.4-0.2-7.6,2.4-7.9,9.8
		c-0.2,5.6,1.3,8.5,4.7,8.7c4,0.2,6.6-4.4,6.8-9.5L285.1,20.9z"/>
	<path d="M307.8,46.7c-2.3-0.2-5.3-0.7-7.7-1.5l0.7-8.9l4.8,0.4c0.2,1.2,0.3,2.6,0.3,3.9c0.8,0.2,2,0.5,3,0.5c3,0.2,5.2-0.9,5.4-3.1
		c0.4-5.2-14.2-3.6-13.3-13.5c0.4-5.4,5.1-9.2,13.6-8.5c2.2,0.2,5,0.7,7.6,1.5l-0.7,8.6l-4.8-0.4c-0.2-1.2-0.3-2.6-0.3-3.9
		c-0.8-0.2-1.9-0.5-2.7-0.5c-3.2-0.3-4.8,0.9-5,2.9c-0.4,5.3,14.1,4,13.4,13.3C321.6,43.5,316,47.4,307.8,46.7z"/>
	<path d="M352.6,37l-18.4-2.1c-0.7,5.5,1.7,8.5,7.2,9.2c2.9,0.3,6.2,0.1,8.9-0.8l0,6c-3.3,0.9-7.1,1.1-10.8,0.7
		c-9.4-1.1-14.1-6.4-12.9-16.9c1.1-9.1,6.8-15.1,15.7-14.1c8.6,1,11.8,7.4,10.9,14.7C353.1,34.6,352.9,35.8,352.6,37z M341.4,24.5
		c-3.2-0.4-5.6,1.7-6.5,5.2l10.9,1.3C346.4,27.3,344.6,24.9,341.4,24.5z"/>
	<path d="M383.4,55.8c-2.4-0.4-6.6-1.3-11.6-2.1l-5.1-0.9l0.8-4.8c1.6,0,3.5,0,5.3,0.2l5-28.9c-1.8-0.4-3.5-1-5-1.6l0.8-4.8l5,0.9
		c3.1,0.5,8.8,1.3,13.6,2.1c8.7,1.5,12.9,5.8,11.8,12.2c-0.7,4-3.8,7-7.9,7.8l0,0.1c4.5,1.8,6.3,6.1,5.6,10.1
		C400.5,51.9,395.4,57.8,383.4,55.8z M385.8,37.9c-0.6-0.1-2.5-0.4-3.4-0.5l-1.9,11.2c0.9,0.3,2.3,0.6,4.1,0.9
		c5.1,0.9,8-1.1,8.7-4.7C394,41,390.9,38.8,385.8,37.9z M389.8,21.8c-1.7-0.3-3.1-0.5-4.5-0.7l-1.8,10.4c0.9,0.2,1.9,0.4,3.1,0.6
		c5.3,0.9,8.3-0.8,9-4.3C396,24.9,394.6,22.6,389.8,21.8z"/>
	<path d="M416.7,62.7c-8.3-1.7-12.7-7.2-10.5-17.6c1.9-9.1,9.4-14.4,18.2-12.5c8.3,1.7,12.7,7.5,10.5,17.5
		C433,59.2,425.4,64.5,416.7,62.7z M422.5,38.8c-3.3-0.7-7.2,1.2-8.4,7.2c-1.3,6,0.3,9.5,4.6,10.4c3.7,0.8,7.1-1.6,8.4-7.5
		C428.3,43.2,426.9,39.7,422.5,38.8z"/>
	<path d="M467.5,48.9l-15.7,24.4c-5.2,8.1-9.4,9.9-16.1,8.3c-1.2-0.3-3-0.9-4.4-1.6l2-6.3c1.4,0.8,2.6,1.3,4,1.7
		c2.5,0.6,4.6-0.2,7.2-4.1l1.7-2.6l-2.2-0.5l-2.3-25.6c-1.1-0.4-2.1-0.8-3-1.4l1.2-4.8l13.9,3.4l-1.2,4.8c-1,0-2,0-3-0.2l0.9,9
		c0.2,2.8,0.3,5.4,0.4,8.3l0.1,0c1.2-2.2,2.8-5.2,4.6-8l4.4-6.8c-1-0.4-1.9-0.8-2.8-1.2l1.2-4.8l13.6,3.3l-1.2,4.8
		C469.7,49.2,468.6,49.1,467.5,48.9z"/>
	<path d="M474.8,76.7c-2.2-0.6-5.1-1.7-7.3-2.9l2.4-8.6l4.7,1.3c0,1.2-0.2,2.6-0.5,3.9c0.8,0.4,1.9,0.8,2.8,1.1c3,0.8,5.3,0.1,5.9-2
		c1.4-5-13.2-6.2-10.6-15.7c1.4-5.2,6.8-8,14.9-5.8c2.1,0.6,4.8,1.6,7.2,2.9l-2.3,8.3l-4.7-1.3c0-1.2,0.2-2.6,0.4-3.9
		c-0.8-0.4-1.8-0.8-2.5-1c-3.1-0.9-4.9,0-5.4,1.9c-1.4,5.1,13.1,6.5,10.7,15.6C489,76.1,482.8,78.9,474.8,76.7z"/>
</g>
<g>
	<g>
		<path d="M163.3,315.1c-1.3-0.9-2.5-2-3.4-3l0,0l-0.3-0.3l3.4-4.8l2.7,1.9l-0.2,0.4c-0.3,0.7-0.7,1.4-1,2l0,0
			c0.3,0.3,0.7,0.6,1,0.9l0,0c0.9,0.6,1.8,1,2.5,1l0,0c0.7,0,1.3-0.3,1.9-1l0,0c0.3-0.4,0.4-0.7,0.4-1.1l0,0c0-0.9-0.8-2.1-1.7-3.5
			l0,0c-0.9-1.4-1.9-2.9-1.9-4.7l0,0c0-1,0.3-2.1,1.1-3.1l0,0c1.2-1.7,2.9-2.6,4.8-2.6l0,0c1.6,0,3.4,0.6,5.1,1.9l0,0
			c1.2,0.8,2.1,1.7,3.1,2.7l0,0l0.3,0.3l-3.3,4.7l-2.7-1.9l0.2-0.4c0.3-0.7,0.6-1.3,0.9-1.9l0,0c-0.2-0.2-0.5-0.4-0.7-0.6l0,0
			c-0.9-0.6-1.7-0.9-2.3-0.9l0,0c-0.7,0-1.2,0.3-1.7,0.9l0,0c-0.2,0.3-0.3,0.6-0.3,1l0,0c0,0.9,0.8,2.2,1.7,3.6l0,0
			c0.9,1.4,1.9,2.9,1.9,4.7l0,0c0,1-0.3,2-1,3l0,0c-1.3,1.8-3.2,2.8-5.3,2.8l0,0c0,0,0,0,0,0l0,0C166.8,316.9,165,316.3,163.3,315.1
			L163.3,315.1"/>
	</g>
	<g>
		<path d="M175.2,322.6l0.2-0.4l0.4,0.2l-0.4-0.2L175.2,322.6l-0.4-0.2l1.4-2.5l0.4,0.1c0.6,0.2,1.4,0.5,2.1,0.8l0,0l7.1-12.5
			c-0.6-0.4-1.2-0.9-1.7-1.4l0,0l-0.3-0.3l1.4-2.5l8.1,4.6l-1.4,2.5l-0.4-0.1c-0.6-0.2-1.4-0.5-2.1-0.8l0,0l-7.1,12.5
			c0.6,0.4,1.2,0.9,1.7,1.4l0,0l0.3,0.3l-1.4,2.5L175.2,322.6L175.2,322.6z"/>
	</g>
	<g>
		<path d="M201.5,335.5l-2.1-13.4c-0.1-0.8-0.2-1.6-0.3-2.4l0,0c-1.1,2.7-2.5,6.1-4,9.6l0,0c0.6,0.3,1.1,0.7,1.6,1l0,0l0.3,0.2
			l-1.1,2.6l-8.3-3.5l1.1-2.6l0.4,0.1c0.7,0.1,1.4,0.3,2.2,0.5l0,0l5.6-13.2c-0.7-0.4-1.3-0.8-1.9-1.2l0,0l-0.3-0.2l1.1-2.6l7,2.9
			l2,13.3c0.1,0.9,0.2,1.7,0.3,2.5l0,0c1-2.7,2.4-6.1,3.9-9.6l0,0c-0.5-0.3-1.1-0.6-1.5-1l0,0l-0.3-0.2l1.1-2.6l7.6,3.2l-1.1,2.7
			l-0.4-0.1c-0.5-0.1-1-0.2-1.6-0.3l0,0l-6.8,16.3L201.5,335.5L201.5,335.5z"/>
	</g>
	<g>
		<path d="M222,342.2c-2-0.5-4.1-1.1-5.1-1.3l0,0l-3-0.7l0.6-2.8h0.4c0.7,0,1.4,0,2.2,0.1l0,0l3.3-14c-0.7-0.2-1.4-0.5-2-0.8l0,0
			l-0.4-0.2l0.6-2.8l2.9,0.7c1.5,0.4,3.8,0.8,6.1,1.3l0,0c5.2,1.2,8.5,4.1,8.4,9.1l0,0c0,1-0.1,2.1-0.4,3.3l0,0
			c-1.3,5.6-5.2,8.4-10.1,8.4l0,0c0,0-0.1,0-0.1,0l0,0C224.4,342.6,223.2,342.4,222,342.2L222,342.2 M226.6,325.3
			c-0.7-0.2-1.5-0.3-2.2-0.5l0,0l-3.1,13.2c0.6,0.2,1.3,0.4,1.8,0.5l0,0c0.8,0.2,1.5,0.3,2.1,0.3l0,0c2.9,0,5.1-1.5,6-5.4l0,0
			c0.2-0.9,0.3-1.8,0.3-2.5l0,0C231.6,328,230.2,326.2,226.6,325.3L226.6,325.3"/>
	</g>
	<g>
		<path d="M243.9,345.7c-1.6,0-3.2-0.3-4.5-0.6l0,0L239,345l0.2-5.9l3.3,0.1l0.1,0.4c0.1,0.8,0.2,1.5,0.3,2.2l0,0
			c0.4,0.1,0.9,0.2,1.3,0.2l0,0c0.1,0,0.1,0,0.2,0l0,0c2.1,0,3.3-0.7,3.4-2.5l0,0c0,0,0,0,0-0.1l0,0c0-0.8-0.4-1.3-1.1-1.8l0,0
			c-0.7-0.5-1.8-0.9-2.9-1.3l0,0c-2.2-0.9-4.6-2.3-4.6-5.7l0,0c0-0.1,0-0.1,0-0.2l0,0c0.1-3.6,3-6.1,7.5-6.1l0,0c0.1,0,0.2,0,0.4,0
			l0,0c1.5,0,2.7,0.2,4.1,0.5l0,0l0.4,0.1l-0.2,5.7l-3.3-0.1l-0.1-0.4c-0.1-0.7-0.2-1.5-0.3-2.1l0,0c-0.3-0.1-0.6-0.1-0.9-0.1l0,0
			c-0.1,0-0.1,0-0.2,0l0,0c-2.2,0-3,0.9-3.1,2.2l0,0c0,0,0,0,0,0.1l0,0c0,0.8,0.4,1.2,1.1,1.7l0,0c0.7,0.5,1.8,0.9,2.9,1.4l0,0
			c2.2,0.9,4.6,2.3,4.6,5.6l0,0c0,0.1,0,0.1,0,0.2l0,0c-0.1,3.8-3.2,6.6-7.8,6.6l0,0c0,0-0.1,0-0.1,0l0,0
			C244.1,345.7,244,345.7,243.9,345.7L243.9,345.7"/>
	</g>
	<g>
		<path d="M268.4,340.1l0.4-0.2c0.8-0.4,1.8-0.8,2.8-1.1l0,0l-3.3-12.8l-3,2.2l-1.6-3.6l4.8-3.2l2.9-0.7l4.4,17.1
			c0.8-0.1,1.6-0.2,2.4-0.3l0,0l0.4,0l0.7,2.8l-10.1,2.6L268.4,340.1L268.4,340.1z"/>
	</g>
	<g>
		<path d="M284.3,334.6l0.7-0.1c0.9-0.1,1.8-0.4,2.7-0.7l0,0c2.5-1,3.6-2.6,3.6-5l0,0c0-0.4,0-0.9-0.1-1.3l0,0
			c-0.7,0.9-1.7,1.7-3,2.2l0,0c-0.9,0.3-1.8,0.5-2.6,0.5l0,0c-2.6,0-4.7-1.6-5.8-4.4l0,0c-0.4-1-0.6-2-0.6-2.9l0,0
			c0-3,1.8-5.6,4.9-6.8l0,0c1-0.4,1.9-0.6,2.9-0.6l0,0c3,0,5.6,2,7.2,6.3l0,0c0.9,2.3,1.3,4.4,1.3,6.3l0,0c0,4.6-2.6,7.8-6.8,9.3
			l0,0c-0.9,0.4-1.8,0.6-2.5,0.8l0,0l-0.4,0.1L284.3,334.6L284.3,334.6z M285.2,319.7L285.2,319.7c-1.3,0.5-1.9,1.6-1.9,2.8l0,0
			c0,0.4,0.1,0.9,0.3,1.4l0,0c0.6,1.6,1.6,2.3,2.7,2.3l0,0c0.4,0,0.8-0.1,1.2-0.2l0,0c1.4-0.6,2.1-1.8,2.1-2.9l0,0
			c0-0.4-0.1-0.7-0.2-1l0,0c-0.7-1.8-1.8-2.6-3-2.6l0,0C286,319.4,285.6,319.5,285.2,319.7L285.2,319.7"/>
	</g>
	<g>
		<path d="M303.4,327.5l1.2-5.2c0.7-2.8,1-4.7,1-6.1l0,0c0-1.1-0.2-1.9-0.6-2.8l0,0c-0.5-0.9-1.1-1.3-1.9-1.3l0,0
			c-0.4,0-0.8,0.1-1.4,0.4l0,0c-0.5,0.2-0.9,0.6-1.3,0.9l0,0c0.2,0.6,0.5,1.3,0.7,2l0,0l0.1,0.4l-2.8,1.5l-2.6-4.9l0.2-0.3
			c1-1.1,2.5-2.3,4.1-3.1l0,0c1.3-0.7,2.5-1,3.6-1l0,0c2.2,0,3.9,1.3,4.9,3.1l0,0c0.7,1.3,0.9,2.6,0.9,4.1l0,0c0,1.9-0.4,4-1.1,6.9
			l0,0l-0.5,2.3c1.6-0.9,3.6-2,6.1-3.3l0,0l0.4-0.2l1.9,3.6l-11.1,5.8l-0.4,0.2L303.4,327.5L303.4,327.5z"/>
	</g>
	<g>
		<path d="M320.6,317.2l0.6-0.2c0.9-0.3,1.7-0.8,2.4-1.3l0,0c1.7-1.2,2.5-2.6,2.5-4.3l0,0c0-0.8-0.2-1.7-0.6-2.7l0,0
			c-0.4,1-1.2,2.1-2.4,2.8l0,0c-1.2,0.8-2.5,1.3-3.8,1.3l0,0c-2,0-3.9-1.1-5.3-3.1l0,0c-0.9-1.4-1.4-2.9-1.4-4.4l0,0
			c0-2.3,1.2-4.6,3.4-6.1l0,0c1.3-0.9,2.7-1.4,4.1-1.4l0,0c2.4,0,4.9,1.5,7,4.6l0,0c2.1,3,3,5.8,3,8.3l0,0c0,3.4-1.8,6.2-4.8,8.2
			l0,0c-0.8,0.6-1.6,1-2.3,1.3l0,0l-0.4,0.2L320.6,317.2L320.6,317.2z M316.7,305c0,0.7,0.2,1.4,0.7,2l0,0c0.8,1.2,1.7,1.7,2.6,1.7
			l0,0c0.5,0,1.1-0.2,1.7-0.6l0,0c1-0.7,1.4-1.7,1.4-2.6l0,0c0-0.6-0.2-1.2-0.5-1.7l0,0c-0.9-1.3-1.9-1.9-2.9-1.9l0,0
			c-0.6,0-1.1,0.2-1.7,0.6l0,0C317.2,303.1,316.7,304,316.7,305L316.7,305z"/>
	</g>
</g>
</svg>
